<?xml version="1.0" encoding="UTF-8" standalone="no"?>
<!-- Created with Inkscape (http://www.inkscape.org/) -->

<svg
   width="48"
   height="48"
   viewBox="0 0 48 48.000002"
   version="1.1"
   id="svg5"
   inkscape:version="1.3.2 (1:1.3.2+202311252150+091e20ef0f)"
   xml:space="preserve"
   sodipodi:docname="gba.svg"
   inkscape:export-filename="gba.png"
   inkscape:export-xdpi="148"
   inkscape:export-ydpi="148"
   xmlns:inkscape="http://www.inkscape.org/namespaces/inkscape"
   xmlns:sodipodi="http://sodipodi.sourceforge.net/DTD/sodipodi-0.dtd"
   xmlns="http://www.w3.org/2000/svg"
   xmlns:svg="http://www.w3.org/2000/svg"><sodipodi:namedview
     id="namedview7"
     pagecolor="#808080"
     bordercolor="#eeeeee"
     borderopacity="1"
     inkscape:pageshadow="0"
     inkscape:pageopacity="0"
     inkscape:pagecheckerboard="0"
     inkscape:document-units="px"
     showgrid="false"
     units="px"
     inkscape:zoom="9.2236599"
     inkscape:cx="14.961523"
     inkscape:cy="15.612024"
     inkscape:window-width="1920"
     inkscape:window-height="1019"
     inkscape:window-x="0"
     inkscape:window-y="0"
     inkscape:window-maximized="1"
     inkscape:current-layer="layer1"
     inkscape:showpageshadow="0"
     inkscape:deskcolor="#d1d1d1"
     showguides="true" /><defs
     id="defs2"><inkscape:path-effect
       effect="powerclip"
       id="path-effect1"
       is_visible="true"
       lpeversion="1"
       inverse="true"
       flatten="false"
       hide_clip="false"
       message="Füllregel Gerade-Ungerade im &lt;b&gt;Füllung und Kontur&lt;/b&gt;-Dialog verwenden, wenn das Anwenden des Ausschnitts mit nachfolgendem Umwandeln in Pfade kein Ergebnis bringt" /><clipPath
       clipPathUnits="userSpaceOnUse"
       id="clipPath1"><path
         style="display:none;fill:#ececec;stroke:#ffffff;stroke-width:1px;stroke-linecap:round;stroke-linejoin:round;stroke-opacity:1"
         d="M 31.780113,18.3274 V 28.600691 H 16.219887 V 18.3274 Z"
         id="path1"
         sodipodi:nodetypes="ccccc" /><path
         id="lpe_path-effect1"
         style="fill:#ececec;stroke:#ffffff;stroke-width:1px;stroke-linecap:round;stroke-linejoin:round;stroke-opacity:1"
         class="powerclip"
         d="M 8.1006271,9.687404 H 39.899372 v 28.29107 H 8.1006271 Z M 31.780113,18.3274 H 16.219887 v 10.273291 h 15.560226 z" /></clipPath></defs><g
     inkscape:label="Layer 1"
     inkscape:groupmode="layer"
     id="layer1"><g
       id="g20"
       transform="matrix(1.0440278,0,0,1.0475348,-1.7354531,-0.93504267)"
       style="stroke-width:0.956224;fill:#ffffff;stroke:none"><ellipse
         style="fill:#ffffff;stroke:none;stroke-width:0.956224;stroke-linecap:round;stroke-linejoin:round;stroke-dasharray:none"
         id="path11"
         cx="37.620106"
         cy="22.478872"
         rx="1.3444659"
         ry="1.3434585" /><ellipse
         style="fill:#ffffff;stroke:none;stroke-width:0.956224;stroke-linecap:round;stroke-linejoin:round;stroke-dasharray:none"
         id="circle11"
         cx="41.628197"
         cy="21.014156"
         rx="1.3444659"
         ry="1.3434585" /></g><path
       style="fill:#ffffff;stroke:none;stroke-width:1px;stroke-linecap:round;stroke-linejoin:round;stroke-opacity:1"
       d="m 17.084877,15.501886 c -2.404509,0.212454 -2.608724,0.354333 -2.923946,2.940874 -0.315222,2.586542 -0.598142,9.054557 -0.555956,11.345507 0.04218,2.290952 6.815465,2.690207 10.395025,2.690207 3.57956,0 10.352844,-0.399255 10.395025,-2.690207 0.04218,-2.29095 -0.240734,-8.758965 -0.555956,-11.345507 C 33.523846,15.856219 33.319632,15.71434 30.915124,15.501886 28.510615,15.289431 26.307432,15.187404 24,15.187404 c -2.307432,0 -4.510615,0.102027 -6.915123,0.314482 z"
       id="path2"
       sodipodi:nodetypes="sssasssas"
       clip-path="url(#clipPath1)"
       inkscape:path-effect="#path-effect1"
       inkscape:original-d="m 17.084877,15.501886 c -2.404509,0.212454 -2.608724,0.354333 -2.923946,2.940874 -0.315222,2.586542 -0.598142,9.054557 -0.555956,11.345507 0.04218,2.290952 6.815465,2.690207 10.395025,2.690207 3.57956,0 10.352844,-0.399255 10.395025,-2.690207 0.04218,-2.29095 -0.240734,-8.758965 -0.555956,-11.345507 C 33.523846,15.856219 33.319632,15.71434 30.915124,15.501886 28.510615,15.289431 26.307432,15.187404 24,15.187404 c -2.307432,0 -4.510615,0.102027 -6.915123,0.314482 z" /><path
       style="fill:none;stroke:#ffffff;stroke-width:2;stroke-linecap:round;stroke-linejoin:round;stroke-opacity:1;stroke-dasharray:none"
       d="m 32.681461,11.628863 c 2.847553,0 4.147378,1.575849 6.251571,2.182352 2.104193,0.606504 3.172367,0.651143 4.141493,0.699523 0.969126,0.04838 1.491218,0.169356 2.083169,7.541845 0.591951,7.372491 1.010322,9.881478 -4.347085,11.117041 -5.357409,1.235564 -4.178578,1.745524 -7.885031,2.438466 -3.706453,0.692942 -5.939517,0.763047 -8.925578,0.763047 -2.986061,0 -5.219125,-0.07011 -8.925578,-0.763047 C 11.36797,34.915148 12.5468,34.405188 7.1893917,33.169624 1.8319833,31.934061 2.2503551,29.425074 2.8423058,22.052583 3.4342564,14.680094 3.956349,14.559114 4.925475,14.510738 5.8946012,14.462361 6.9627751,14.417723 9.0669679,13.811215 11.171161,13.204712 12.470986,11.628863 15.318539,11.628863 H 24 Z"
       id="path13"
       sodipodi:nodetypes="ssssssassscsscs" /><path
       id="path27"
       style="fill:#ffffff;stroke:none;stroke-width:1px;stroke-linecap:round;stroke-linejoin:round;stroke-opacity:1"
       d="m 6.9289968,18.591797 0.00195,2 -2,0.002 v 1.150391 1.15039 l 2,-0.002 0.00195,2 h 1.1503907 1.1503906 l -0.00195,-2 1.9999999,-0.002 v -1.150391 -1.15039 l -1.9999999,0.002 -0.00195,-2 H 8.0793874 Z" /></g></svg>
