<?xml version="1.0" encoding="UTF-8" standalone="no"?>
<!-- Created with Inkscape (http://www.inkscape.org/) -->

<svg
   width="48"
   height="48"
   viewBox="0 0 48 48.000002"
   version="1.1"
   id="svg5"
   inkscape:version="1.3.2 (1:1.3.2+202311252150+091e20ef0f)"
   xml:space="preserve"
   sodipodi:docname="gbc.svg"
   inkscape:export-filename="gbc.png"
   inkscape:export-xdpi="148"
   inkscape:export-ydpi="148"
   xmlns:inkscape="http://www.inkscape.org/namespaces/inkscape"
   xmlns:sodipodi="http://sodipodi.sourceforge.net/DTD/sodipodi-0.dtd"
   xmlns="http://www.w3.org/2000/svg"
   xmlns:svg="http://www.w3.org/2000/svg"><sodipodi:namedview
     id="namedview7"
     pagecolor="#808080"
     bordercolor="#eeeeee"
     borderopacity="1"
     inkscape:pageshadow="0"
     inkscape:pageopacity="0"
     inkscape:pagecheckerboard="0"
     inkscape:document-units="px"
     showgrid="false"
     units="px"
     inkscape:zoom="17.366543"
     inkscape:cx="18.368653"
     inkscape:cy="31.036689"
     inkscape:window-width="1920"
     inkscape:window-height="1019"
     inkscape:window-x="0"
     inkscape:window-y="0"
     inkscape:window-maximized="1"
     inkscape:current-layer="layer1"
     inkscape:showpageshadow="0"
     inkscape:deskcolor="#d1d1d1"
     showguides="true"><sodipodi:guide
       position="24,28.000001"
       orientation="-1,0"
       id="guide1"
       inkscape:locked="false"
       inkscape:label=""
       inkscape:color="rgb(0,134,229)" /></sodipodi:namedview><defs
     id="defs2"><style
       id="style1">.a{fill:none;stroke:#000;stroke-linecap:round;stroke-linejoin:round;}.b{fill:#000;}</style></defs><g
     inkscape:label="Layer 1"
     inkscape:groupmode="layer"
     id="layer1"><g
       id="g19"
       transform="matrix(-0.89363233,0,0,0.89710214,45.446829,1.4606828)"
       style="stroke-width:1.11686" /><g
       id="g22"
       transform="matrix(0.86105643,0,0,0.86316258,3.117919,1.5146821)"
       style="stroke-width:1.15994;fill:#ffffff;stroke:none"><g
         id="g20"
         transform="matrix(1.2065325,0.06680052,-0.06622617,1.2251861,-14.140532,4.2300892)"
         style="stroke-width:0.952617;stroke-linejoin:round;fill:#ffffff;stroke:none"><ellipse
           style="fill:#ffffff;stroke:none;stroke-width:0.952617;stroke-linecap:round;stroke-linejoin:round;stroke-dasharray:none"
           id="path11"
           cx="37.620106"
           cy="22.478872"
           rx="1.3444659"
           ry="1.3434585" /><ellipse
           style="fill:#ffffff;stroke:none;stroke-width:0.952617;stroke-linecap:round;stroke-linejoin:round;stroke-dasharray:none"
           id="circle11"
           cx="41.628197"
           cy="21.014156"
           rx="1.3444659"
           ry="1.3434585" /></g><path
         id="path27"
         style="fill:#ffffff;stroke:none;stroke-width:1.15994px;stroke-linecap:round;stroke-linejoin:round;stroke-opacity:1"
         d="m 14.43919,29.985042 0.0023,2.252338 -2.252339,0.0023 v 1.295535 1.295534 l 2.252339,-0.0023 0.0023,2.252339 h 1.295535 1.295534 l -0.0023,-2.252339 2.252338,-0.0023 V 33.530614 32.23508 l -2.252338,0.0023 -0.0023,-2.252338 h -1.295536 z" /></g><path
       style="fill:none;stroke:#ffffff;stroke-width:2;stroke-linecap:round;stroke-linejoin:round;stroke-opacity:1;stroke-dasharray:none"
       d="m 14.040861,44.251024 c -1.79916,-0.433023 -2.075268,-0.675776 -2.075268,-3.390597 V 4.5364842 c 0,-1.37502 0.632619,-2.0362676 1.607151,-2.0357011 6.951503,-0.00108 13.90301,0.00337 20.854512,0 0.974533,-5.665e-4 1.607151,0.6606811 1.607151,2.0357011 V 40.860427 c 0,2.714821 -0.276108,2.957574 -2.075268,3.390597 C 32.672947,44.560585 28.711712,45.49939 24,45.49939 c -4.711712,0 -8.672947,-0.938805 -9.959139,-1.248366 z"
       id="path1"
       sodipodi:nodetypes="sssssssscs" /><path
       id="path3"
       style="fill:#ffffff;stroke:none;stroke-width:0.999995px;stroke-linecap:round;stroke-linejoin:round;stroke-opacity:1"
       d="M 24 4.9238281 C 18.454661 4.9238281 14.992188 5.0488281 14.992188 5.0488281 C 14.207535 5.0801581 14.337891 6.0644014 14.337891 7.0175781 L 14.337891 20.498047 C 14.337891 21.997264 17.655484 22.886719 24 22.886719 C 30.344516 22.886719 33.662109 21.997264 33.662109 20.498047 L 33.662109 7.0175781 C 33.662109 6.0644014 33.793087 5.0488281 33.007812 5.0488281 C 33.007812 5.0488281 29.545339 4.9238281 24 4.9238281 z M 17.974609 7.1855469 L 30.025391 7.1855469 L 30.025391 18.341797 L 17.974609 18.341797 L 17.974609 7.1855469 z " /><g
       id="g21"
       transform="matrix(0.86105643,0,0,0.86316258,3.0379067,1.5146821)"
       style="stroke-width:2.31989264;stroke-dasharray:none"><path
         style="fill:none;stroke:#ffffff;stroke-width:2.31989264;stroke-linecap:round;stroke-linejoin:round;stroke-opacity:1;stroke-dasharray:none"
         d="m 21.116231,42.107708 h 1.92716"
         id="path5" /><path
         style="fill:none;stroke:#ffffff;stroke-width:2.31989264;stroke-linecap:round;stroke-linejoin:round;stroke-opacity:1;stroke-dasharray:none"
         d="m 27.573092,42.107708 h -1.92716"
         id="path21" /></g></g></svg>
