<?xml version="1.0" encoding="UTF-8" standalone="no"?>
<svg
   id="Layer_2"
   data-name="Layer 2"
   viewBox="0 0 48 48"
   version="1.1"
   sodipodi:docname="themes.svg"
   inkscape:export-filename="themes.png"
   inkscape:export-xdpi="148"
   inkscape:export-ydpi="148"
   inkscape:version="1.3.2 (1:1.3.2+202311252150+091e20ef0f)"
   xmlns:inkscape="http://www.inkscape.org/namespaces/inkscape"
   xmlns:sodipodi="http://sodipodi.sourceforge.net/DTD/sodipodi-0.dtd"
   xmlns="http://www.w3.org/2000/svg"
   xmlns:svg="http://www.w3.org/2000/svg">
  <sodipodi:namedview
     id="namedview1"
     pagecolor="#ffffff"
     bordercolor="#666666"
     borderopacity="1.0"
     inkscape:showpageshadow="2"
     inkscape:pageopacity="0.0"
     inkscape:pagecheckerboard="0"
     inkscape:deskcolor="#d1d1d1"
     inkscape:zoom="16.416667"
     inkscape:cx="23.969543"
     inkscape:cy="24"
     inkscape:window-width="1920"
     inkscape:window-height="1019"
     inkscape:window-x="0"
     inkscape:window-y="0"
     inkscape:window-maximized="1"
     inkscape:current-layer="Layer_2" />
  <defs
     id="defs1">
    <style
       id="style1">.cls-1{fill:none;stroke:#fff;stroke-linecap:round;stroke-linejoin:round;}</style>
  </defs>
  <path
     class="cls-1"
     d="M7.45,5.5a2,2,0,0,0-1.95,2V9.39h37V7.45a2,2,0,0,0-2-1.95Zm3.89,7.3a2.92,2.92,0,0,0-2.92,2.92v6.33A2.91,2.91,0,0,1,5.5,25V40.55a2,2,0,0,0,2,2h33.1a2,2,0,0,0,2-2V23.24a2.88,2.88,0,0,1-2,.76,2.92,2.92,0,0,1-2.92-2.93V15.72a2.92,2.92,0,0,0-5.84,0v1.46a2.92,2.92,0,0,1-5.84,0V15.72a2.92,2.92,0,1,0-5.84,0V25a2.93,2.93,0,0,1-5.85,0V15.72a2.91,2.91,0,0,0-2.92-2.92Z"
     id="path1"
     style="stroke-width:2;stroke-dasharray:none" />
</svg>
