<?xml version="1.0" encoding="UTF-8" standalone="no"?>
<svg
   viewBox="0 0 48 48"
   version="1.1"
   id="svg14"
   sodipodi:docname="tweaks_system.svg"
   inkscape:version="1.3.2 (1:1.3.2+202311252150+091e20ef0f)"
   inkscape:export-filename="tweaks_system.png"
   inkscape:export-xdpi="148"
   inkscape:export-ydpi="148"
   xmlns:inkscape="http://www.inkscape.org/namespaces/inkscape"
   xmlns:sodipodi="http://sodipodi.sourceforge.net/DTD/sodipodi-0.dtd"
   xmlns="http://www.w3.org/2000/svg"
   xmlns:svg="http://www.w3.org/2000/svg">
  <sodipodi:namedview
     id="namedview14"
     pagecolor="#808080"
     bordercolor="#666666"
     borderopacity="1.0"
     inkscape:showpageshadow="2"
     inkscape:pageopacity="0.0"
     inkscape:pagecheckerboard="0"
     inkscape:deskcolor="#d1d1d1"
     inkscape:zoom="16.416667"
     inkscape:cx="23.969543"
     inkscape:cy="24"
     inkscape:window-width="1920"
     inkscape:window-height="1019"
     inkscape:window-x="0"
     inkscape:window-y="0"
     inkscape:window-maximized="1"
     inkscape:current-layer="svg14" />
  <defs
     id="defs1">
    <style
       id="style1">.a{fill:none;stroke:#fff;stroke-linecap:round;stroke-linejoin:round;}</style>
  </defs>
  <line
     class="a"
     x1="43.5"
     y1="5.21"
     x2="4.5"
     y2="5.21"
     id="line1"
     style="stroke-width:2;stroke-dasharray:none" />
  <line
     class="a"
     x1="41.55"
     y1="36.41"
     x2="41.55"
     y2="5.21"
     id="line2"
     style="stroke-width:2;stroke-dasharray:none" />
  <line
     class="a"
     x1="4.5"
     y1="36.41"
     x2="43.5"
     y2="36.41"
     id="line3"
     style="stroke-width:2;stroke-dasharray:none" />
  <line
     class="a"
     x1="6.45"
     y1="5.21"
     x2="6.45"
     y2="36.41"
     id="line4"
     style="stroke-width:2;stroke-dasharray:none" />
  <path
     class="a"
     d="M33.2,15.64a2.32,2.32,0,1,1-4.64,0V11.51a2.32,2.32,0,0,1,4.64,0Z"
     id="path4"
     style="stroke-width:2;stroke-dasharray:none;fill:#ffffff;stroke:none" />
  <path
     class="a"
     d="M19.44,23.12a2.32,2.32,0,0,1-4.64,0V19a2.32,2.32,0,0,1,4.64,0Z"
     id="path5"
     style="stroke-width:2;stroke-dasharray:none;fill:#ffffff;stroke:none" />
  <path
     class="a"
     d="M33.2,30.6a2.32,2.32,0,0,1-4.64,0V26.47a2.32,2.32,0,0,1,4.64,0Z"
     id="path6"
     style="stroke-width:2;stroke-dasharray:none;fill:#ffffff;stroke:none" />
  <line
     class="a"
     x1="11.33"
     y1="13.58"
     x2="28.56"
     y2="13.58"
     id="line6"
     style="stroke-width:2;stroke-dasharray:none" />
  <line
     class="a"
     x1="11.33"
     y1="28.53"
     x2="28.56"
     y2="28.53"
     id="line7"
     style="stroke-width:2;stroke-dasharray:none" />
  <line
     class="a"
     x1="33.2"
     y1="13.58"
     x2="36.67"
     y2="13.58"
     id="line8"
     style="stroke-width:2;stroke-dasharray:none" />
  <line
     class="a"
     x1="33.2"
     y1="28.53"
     x2="36.67"
     y2="28.53"
     id="line9"
     style="stroke-width:2;stroke-dasharray:none" />
  <line
     class="a"
     x1="19.44"
     y1="21.06"
     x2="36.67"
     y2="21.06"
     id="line10"
     style="stroke-width:2;stroke-dasharray:none" />
  <line
     class="a"
     x1="14.8"
     y1="21.06"
     x2="11.33"
     y2="21.06"
     id="line11"
     style="stroke-width:2;stroke-dasharray:none" />
  <line
     class="a"
     x1="11.93"
     y1="42.46"
     x2="17.96"
     y2="36.41"
     id="line12"
     style="stroke-width:2;stroke-dasharray:none" />
  <line
     class="a"
     x1="24"
     y1="36.41"
     x2="24"
     y2="42.79"
     id="line13"
     style="stroke-width:2;stroke-dasharray:none" />
  <line
     class="a"
     x1="36.07"
     y1="42.46"
     x2="30.04"
     y2="36.41"
     id="line14"
     style="stroke-width:2;stroke-dasharray:none" />
</svg>
