<?xml version="1.0" encoding="UTF-8" standalone="no"?>
<svg
   id="a"
   viewBox="0 0 48 48"
   version="1.1"
   sodipodi:docname="tweaks_tools.svg"
   inkscape:version="1.3.2 (1:1.3.2+202311252150+091e20ef0f)"
   inkscape:export-filename="tweaks_tools.png"
   inkscape:export-xdpi="148"
   inkscape:export-ydpi="148"
   xmlns:inkscape="http://www.inkscape.org/namespaces/inkscape"
   xmlns:sodipodi="http://sodipodi.sourceforge.net/DTD/sodipodi-0.dtd"
   xmlns="http://www.w3.org/2000/svg"
   xmlns:svg="http://www.w3.org/2000/svg">
  <sodipodi:namedview
     id="namedview2"
     pagecolor="#808080"
     bordercolor="#666666"
     borderopacity="1.0"
     inkscape:showpageshadow="2"
     inkscape:pageopacity="0.0"
     inkscape:pagecheckerboard="0"
     inkscape:deskcolor="#d1d1d1"
     inkscape:zoom="16.416667"
     inkscape:cx="23.969543"
     inkscape:cy="24"
     inkscape:window-width="1920"
     inkscape:window-height="1019"
     inkscape:window-x="0"
     inkscape:window-y="0"
     inkscape:window-maximized="1"
     inkscape:current-layer="a" />
  <defs
     id="defs1">
    <style
       id="style1">.b{fill:none;stroke:#fff;stroke-linecap:round;stroke-linejoin:round;}</style>
  </defs>
  <path
     class="b"
     d="m39.23,26c.0871-.6632.1339-1.3311.14-2-.0061-.6689-.0529-1.3368-.14-2l4.33-3.39c.4049-.3092.5125-.8734.25-1.31l-4.1-7.11c-.2457-.4413-.782-.6301-1.25-.44l-5.11,2.06c-1.0633-.8115-2.2261-1.4836-3.46-2l-.77-5.43c-.0702-.497-.4981-.8649-1-.86h-8.22c-.5019-.0049-.9298.363-1,.86l-.77,5.43c-1.2355.5131-2.3987,1.1855-3.46,2l-5.13-2.06c-.468-.1901-1.0043-.0013-1.25.44l-4.1,7.11c-.2625.4366-.1549,1.0008.25,1.31l4.32,3.39c-.0868.6632-.1335,1.3311-.14,2,.0061.6689.0529,1.3368.14,2l-4.32,3.39c-.4049.3092-.5125.8734-.25,1.31l4.1,7.11c.2457.4413.782.6301,1.25.44l5.11-2.06c1.0633.8115,2.2261,1.4836,3.46,2l.77,5.43c.0702.497.4981.8649,1,.86h8.2c.5019.0049.9298-.363,1-.86l.77-5.43c1.2355-.5131,2.3987-1.1855,3.46-2l5.11,2.06c.468.1901,1.0043.0013,1.25-.44l4.1-7.11c.2625-.4366.1549-1.0008-.25-1.31l-4.29-3.39Z"
     id="path1"
     style="stroke-width:2;stroke-dasharray:none" />
  <path
     class="b"
     d="m 17.0554,30.0742 c 3.5757,-3.6551 7.1746,-7.2873 10.7989,-10.8939 -0.255,-1.3033 0.1566,-2.7684 1.2778,-3.5544 0.8079,-0.5824 1.8706,-0.7944 2.8395,-0.561 -0.6393,0.7319 -1.5751,1.3031 -1.8205,2.2882 -0.2599,1.2519 1.163,2.3623 2.325,1.8611 0.7549,-0.4223 1.2885,-1.1494 1.9242,-1.7292 0.4286,1.6626 -0.5622,3.5581 -2.2325,4.0432 -0.6238,0.4157 -1.5017,-0.1263 -2.0285,0.2458 l -10.97,10.6696 c -0.6326,0.5029 -1.5419,0.4512 -2.1134,-0.1203 -0.6208,-0.6208 -0.6208,-1.6273 0,-2.2482 l -5e-4,-8e-4 z M 27.594673,24.872473 32.7751,30.1457 c 0.3167,0.3167 0.4946,0.7462 0.4946,1.194 v 0 c 0,0.9326 -0.756,1.6885 -1.6885,1.6885 -0.4483,0 -0.8783,-0.1783 -1.1945,-0.4951 L 25.143873,27.282273 M 22.9012,24.1339 c -1.2981,-1.2606 -2.5485,-2.5726 -3.8884,-3.7884 -0.8491,-0.4657 -1.935,0.3658 -1.7343,1.3042 0.039,0.3748 -0.4223,0.5433 -0.6124,0.8237 l -0.7328,0.7376 c -0.8111,-0.8107 -1.6221,-1.6214 -2.4332,-2.432 l 1.3677,-1.3698 c 0.8298,0.2315 1.7948,-0.4864 1.6014,-1.3823 -0.0751,-0.3721 0.4164,-0.5372 0.5995,-0.815 0.8934,-0.88 1.7745,-1.9068 3.0833,-2.12 1.1113,-0.2683 2.3606,-0.086 3.3035,0.5671 -0.2077,0.5305 -0.7178,0.4754 -1.1802,0.4661 -1.1075,0.0199 -2.2394,0.4667 -2.983,1.2965 1.6727,1.7655 3.4209,3.4599 5.1333,5.1872"
     id="path2"
     style="fill:#f9f9f9;stroke:#f9f9f9"
     sodipodi:nodetypes="ccccccccccscccccssscccccccccccccccc" />
</svg>
