<?xml version="1.0" encoding="UTF-8" standalone="no"?>
<svg
   viewBox="0 0 48 48"
   version="1.1"
   id="svg2"
   sodipodi:docname="tweaks_advanced.svg"
   inkscape:version="1.3.2 (1:1.3.2+202311252150+091e20ef0f)"
   inkscape:export-filename="tweaks_advanced.png"
   inkscape:export-xdpi="148"
   inkscape:export-ydpi="148"
   xmlns:inkscape="http://www.inkscape.org/namespaces/inkscape"
   xmlns:sodipodi="http://sodipodi.sourceforge.net/DTD/sodipodi-0.dtd"
   xmlns="http://www.w3.org/2000/svg"
   xmlns:svg="http://www.w3.org/2000/svg">
  <sodipodi:namedview
     id="namedview2"
     pagecolor="#808080"
     bordercolor="#666666"
     borderopacity="1.0"
     inkscape:showpageshadow="2"
     inkscape:pageopacity="0.0"
     inkscape:pagecheckerboard="0"
     inkscape:deskcolor="#d1d1d1"
     inkscape:zoom="16.416667"
     inkscape:cx="23.969543"
     inkscape:cy="24"
     inkscape:window-width="1920"
     inkscape:window-height="1019"
     inkscape:window-x="0"
     inkscape:window-y="0"
     inkscape:window-maximized="1"
     inkscape:current-layer="svg2" />
  <defs
     id="defs1">
    <style
       id="style1">.a{fill:none;stroke:#fff;stroke-linecap:round;stroke-linejoin:round;}</style>
  </defs>
  <path
     class="a"
     d="M12,19.77a11.13,11.13,0,0,0-2.26.94L10,25.24,5.44,25a11.13,11.13,0,0,0-.94,2.26l3.37,3.05-3.37,3a10.68,10.68,0,0,0,.94,2.26L10,35.39l-.23,4.54a11.09,11.09,0,0,0,2.26.93l3.05-3.37,3,3.37a10.64,10.64,0,0,0,2.26-.93l-.23-4.54,4.54.23a10.64,10.64,0,0,0,.93-2.26l-3.37-3,3.37-3.05A11.09,11.09,0,0,0,24.66,25l-4.54.23.23-4.53a10.68,10.68,0,0,0-2.26-.94l-3,3.37Z"
     id="path1"
     style="stroke-width:2;stroke-dasharray:none" />
  <circle
     class="a"
     cx="15.05"
     cy="30.32"
     r="3.96"
     id="circle1"
     style="stroke-width:2;stroke-dasharray:none" />
  <path
     class="a"
     d="M29.91,7.14a11,11,0,0,0-2.27.93l.24,4.54-4.54-.23a10.64,10.64,0,0,0-.93,2.26l3.36,3-3.36,3.05A11.09,11.09,0,0,0,23.34,23l4.54-.23-.24,4.53a11,11,0,0,0,2.27.94l3-3.37,3,3.37a11.13,11.13,0,0,0,2.26-.94L38,22.76l4.53.23a11.13,11.13,0,0,0,.94-2.26l-3.37-3.05,3.37-3a10.68,10.68,0,0,0-.94-2.26L38,12.61l.23-4.54A11,11,0,0,0,36,7.14l-3,3.37Z"
     id="path2"
     style="stroke-width:2;stroke-dasharray:none" />
  <circle
     class="a"
     cx="32.95"
     cy="17.68"
     r="3.96"
     id="circle2"
     style="stroke-width:2;stroke-dasharray:none" />
</svg>
