<?xml version="1.0" encoding="UTF-8" standalone="no"?>
<svg
   id="Layer_2"
   data-name="Layer 2"
   viewBox="0 0 48 48"
   version="1.1"
   sodipodi:docname="tweaks.svg"
   inkscape:version="1.3.2 (1:1.3.2+202311252150+091e20ef0f)"
   inkscape:export-filename="tweaks.png"
   inkscape:export-xdpi="148"
   inkscape:export-ydpi="148"
   xmlns:inkscape="http://www.inkscape.org/namespaces/inkscape"
   xmlns:sodipodi="http://sodipodi.sourceforge.net/DTD/sodipodi-0.dtd"
   xmlns="http://www.w3.org/2000/svg"
   xmlns:svg="http://www.w3.org/2000/svg">
  <sodipodi:namedview
     id="namedview1"
     pagecolor="#808080"
     bordercolor="#666666"
     borderopacity="1.0"
     inkscape:showpageshadow="2"
     inkscape:pageopacity="0.0"
     inkscape:pagecheckerboard="0"
     inkscape:deskcolor="#d1d1d1"
     inkscape:zoom="16.416667"
     inkscape:cx="24"
     inkscape:cy="24"
     inkscape:window-width="1920"
     inkscape:window-height="1019"
     inkscape:window-x="0"
     inkscape:window-y="0"
     inkscape:window-maximized="1"
     inkscape:current-layer="Layer_2" />
  <defs
     id="defs1">
    <style
       id="style1">.cls-1{fill:none;stroke:#fff;stroke-linecap:round;stroke-linejoin:round;}</style>
  </defs>
  <path
     class="cls-1"
     d="M39.23,26a16.52,16.52,0,0,0,.14-2,16.52,16.52,0,0,0-.14-2l4.33-3.39a1,1,0,0,0,.25-1.31l-4.1-7.11a1,1,0,0,0-1.25-.44l-5.11,2.06a15.68,15.68,0,0,0-3.46-2l-.77-5.43a1,1,0,0,0-1-.86H19.9a1,1,0,0,0-1,.86l-.77,5.43a15.36,15.36,0,0,0-3.46,2L9.54,9.75a1,1,0,0,0-1.25.44L4.19,17.3a1,1,0,0,0,.25,1.31L8.76,22a16.66,16.66,0,0,0-.14,2,16.52,16.52,0,0,0,.14,2L4.44,29.39a1,1,0,0,0-.25,1.31l4.1,7.11a1,1,0,0,0,1.25.44l5.11-2.06a15.68,15.68,0,0,0,3.46,2l.77,5.43a1,1,0,0,0,1,.86h8.2a1,1,0,0,0,1-.86l.77-5.43a15.36,15.36,0,0,0,3.46-2l5.11,2.06a1,1,0,0,0,1.25-.44l4.1-7.11a1,1,0,0,0-.25-1.31ZM24,31.18A7.18,7.18,0,1,1,31.17,24,7.17,7.17,0,0,1,24,31.18Z"
     id="path1"
     style="stroke-width:2;stroke-dasharray:none" />
</svg>
